<svg width="307" height="40" viewBox="0 0 307 40" xmlns="http://www.w3.org/2000/svg">
<path d="M29.308 0.875679C28.6063 0.852089 27.8718 0.974429 27.1354 1.21318C25.6625 1.69069 24.1191 2.62124 22.5352 3.90967C21.9144 4.4146 21.2881 4.99179 20.6596 5.6042C20.045 5.00734 19.4315 4.44564 18.8244 3.95186C17.2418 2.66447 15.7026 1.73356 14.233 1.25713C12.7635 0.780699 11.3013 0.765939 10.1004 1.45928C8.89948 2.15262 8.18134 3.42537 7.85918 4.93623C7.53701 6.4471 7.5725 8.2463 7.89609 10.2606C8.00849 10.9603 8.16879 11.6943 8.35138 12.4421C7.66517 12.6501 6.99879 12.8687 6.38085 13.1101C4.51597 13.8384 2.97289 14.7098 1.84921 15.7468C0.72554 16.7837 0 18.0422 0 19.4241C0 20.806 0.72554 22.0628 1.84921 23.0997C2.97289 24.1366 4.51597 25.0098 6.38085 25.7382C7.04161 25.9963 7.75699 26.2286 8.49548 26.4483C8.22988 27.4409 8.01464 28.4041 7.86796 29.3171C7.54411 31.333 7.50991 33.1325 7.83281 34.6468C8.15571 36.1611 8.87418 37.441 10.0811 38.1378C11.2879 38.8346 12.7566 38.8175 14.2295 38.3399C15.7024 37.8624 17.244 36.9336 18.8279 35.6452C19.443 35.1449 20.0651 34.5742 20.6877 33.9683C21.3136 34.5779 21.9382 35.1513 22.5563 35.654C24.1389 36.9414 25.6799 37.8705 27.1494 38.347C28.619 38.8234 30.0811 38.8382 31.282 38.1448C32.4829 37.4515 33.1993 36.1787 33.5215 34.6679C33.8437 33.157 33.8082 31.3595 33.4846 29.3452C33.3375 28.4297 33.1222 27.4634 32.8553 26.4677C33.6182 26.2426 34.3562 26.004 35.0367 25.7382C36.9016 25.0098 38.4447 24.1366 39.5684 23.0997C40.692 22.0628 41.4176 20.806 41.4176 19.4241C41.4176 18.0422 40.692 16.7837 39.5684 15.7468C38.4447 14.7098 36.9016 13.8384 35.0367 13.1101C34.4099 12.8652 33.7333 12.6437 33.0363 12.4333C33.2204 11.6809 33.3838 10.9417 33.4969 10.2378C33.8207 8.2219 33.8549 6.42064 33.532 4.90635C33.2092 3.39206 32.4889 2.11386 31.282 1.41709C30.6786 1.06871 30.0097 0.899279 29.308 0.875679ZM29.2254 2.70733C29.6657 2.71937 30.0414 2.82415 30.3627 3.00967C31.0054 3.3807 31.4804 4.10283 31.7338 5.29131C31.9872 6.47979 31.9785 8.0855 31.6793 9.9478C31.5769 10.5853 31.4282 11.2611 31.2592 11.9534C29.4182 11.5104 27.401 11.1816 25.251 10.9884C24.1717 9.4931 23.0627 8.131 21.9445 6.9226C22.536 6.34524 23.1236 5.8053 23.6971 5.33877C25.1602 4.14859 26.5454 3.33873 27.7014 2.96397C28.2794 2.77658 28.7851 2.69528 29.2254 2.70733ZM12.1465 2.7126C12.5894 2.70024 13.0961 2.78131 13.6758 2.96924C14.8351 3.34509 16.2227 4.15458 17.6871 5.3458C18.2491 5.80297 18.8236 6.33263 19.4027 6.8962C18.2764 8.1145 17.1582 9.4885 16.0717 10.9972C13.9308 11.1939 11.9217 11.5245 10.0899 11.9692C9.92208 11.2807 9.77338 10.6085 9.67148 9.9741C9.37208 8.1103 9.36458 6.50431 9.61878 5.3124C9.87288 4.1205 10.3518 3.39292 11.0004 3.01846C11.3247 2.83123 11.7036 2.72496 12.1465 2.7126ZM20.6877 8.2181C21.4209 9.0159 22.1542 9.889 22.8815 10.8284C22.1668 10.7986 21.4435 10.781 20.7088 10.781C19.9595 10.781 19.2224 10.7992 18.494 10.8302C19.2214 9.89 19.9544 9.0165 20.6877 8.2181ZM20.7088 12.5985C21.9327 12.5985 23.1256 12.6488 24.286 12.7339C25.0844 13.8806 25.8646 15.0972 26.608 16.3849C27.2613 17.5163 27.8524 18.646 28.3904 19.7616C27.8467 20.8921 27.2457 22.037 26.5834 23.1841C26.0005 24.1938 25.3917 25.1528 24.7729 26.0774C23.4622 26.187 22.1041 26.2479 20.7088 26.2479C19.2799 26.2479 17.8913 26.1834 16.5516 26.0687C15.9431 25.1573 15.3446 24.2128 14.7709 23.2192C14.1102 22.0748 13.512 20.9319 12.9692 19.8038C13.5143 18.6693 14.1151 17.5201 14.7797 16.369C15.5192 15.0881 16.2972 13.8786 17.0912 12.7374C18.2641 12.6504 19.4708 12.5985 20.7088 12.5985ZM26.6027 12.9589C28.0864 13.144 29.4794 13.401 30.7758 13.7095C30.3911 14.9705 29.9173 16.2877 29.3432 17.647C28.9704 16.9284 28.5843 16.2074 28.1672 15.4849C27.6617 14.6093 27.1352 13.7745 26.6027 12.9589ZM14.7182 12.973C14.197 13.7733 13.6842 14.5919 13.1889 15.4497C12.7664 16.1815 12.3723 16.9122 11.9953 17.6399C11.4262 16.2888 10.9552 14.9791 10.5733 13.7253C11.86 13.4163 13.2449 13.1602 14.7182 12.973ZM32.5565 14.1876C33.1945 14.3806 33.8106 14.5821 34.3758 14.8028C36.0949 15.4743 37.4548 16.2694 38.3361 17.0827C39.2175 17.896 39.6 18.6717 39.6 19.4241C39.6 20.1766 39.2175 20.9522 38.3361 21.7655C37.4548 22.5789 36.0949 23.374 34.3758 24.0454C33.7477 24.2907 33.0577 24.5132 32.3402 24.7239C31.8285 23.141 31.1753 21.4896 30.3979 19.8038C31.2917 17.8683 32.0138 15.9812 32.5565 14.1876ZM8.83128 14.1964C9.36768 15.9721 10.0805 17.8405 10.9617 19.7563C10.1792 21.452 9.52278 23.1128 9.00878 24.7046C8.31668 24.4994 7.64998 24.283 7.04179 24.0454C5.32265 23.374 3.9628 22.5789 3.08144 21.7655C2.20008 20.9522 1.81757 20.1766 1.81757 19.4241C1.81757 18.6717 2.20008 17.896 3.08144 17.0827C3.9628 16.2694 5.32265 15.4743 7.04179 14.8028C7.59828 14.5855 8.20411 14.3869 8.83128 14.1964ZM20.7088 15.2897C18.2342 15.2897 16.2088 17.3151 16.2088 19.7897C16.2088 22.2644 18.2342 24.2897 20.7088 24.2897C23.1834 24.2897 25.2088 22.2644 25.2088 19.7897C25.2088 17.3151 23.1834 15.2897 20.7088 15.2897ZM12.0164 21.9185C12.3951 22.6498 12.7888 23.3837 13.2135 24.1192C13.5457 24.6947 13.8851 25.2549 14.2295 25.805C13.0208 25.6374 11.8719 25.4252 10.793 25.1739C11.1361 24.1231 11.5466 23.0323 12.0164 21.9185ZM29.366 21.9185C29.8378 23.0349 30.2485 24.1275 30.593 25.181C29.5106 25.4319 28.3582 25.6434 27.1459 25.8103C27.4949 25.2534 27.8395 24.6863 28.176 24.1034C28.5975 23.3733 28.9898 22.6445 29.366 21.9185ZM10.2744 26.9212C11.9033 27.3071 13.6687 27.6035 15.5408 27.7966C16.7905 29.6041 18.0925 31.2283 19.4027 32.6481C18.8168 33.2194 18.2361 33.7556 17.6678 34.2179C16.2046 35.4081 14.8177 36.2161 13.6617 36.5909C12.5058 36.9657 11.6431 36.9162 11.0004 36.5452C10.3578 36.1742 9.88448 35.4521 9.63108 34.2636C9.37758 33.0751 9.38458 31.4711 9.68378 29.6089C9.81948 28.7641 10.0223 27.8595 10.2744 26.9212ZM31.1133 26.9282C31.3675 27.8722 31.5709 28.7802 31.7074 29.63C32.0069 31.4938 32.0143 33.0998 31.7602 34.2917C31.506 35.4836 31.0306 36.2129 30.382 36.5874C29.7335 36.9619 28.8624 37.0107 27.7031 36.6349C26.5438 36.259 25.1562 35.4495 23.6918 34.2583C23.1194 33.7927 22.5347 33.2522 21.9445 32.6763C23.2636 31.2509 24.5747 29.6184 25.8328 27.8001C27.7096 27.6083 29.48 27.3136 31.1133 26.9282ZM17.8893 27.9812C18.8134 28.0315 19.7496 28.0655 20.7088 28.0655C21.6363 28.0655 22.5422 28.0336 23.4369 27.9864C22.5223 29.2205 21.5899 30.3424 20.6613 31.3526C19.7333 30.3402 18.8027 29.2163 17.8893 27.9812Z" fill="currentColor" />
<path d="M120.601 0.2795C120.437 0.10148 120.208 0 119.966 0H86.3644C86.1224 0 85.8935 0.10148 85.7295 0.2795C85.5665 0.45752 85.4865 0.6966 85.5085 0.93654L88.5354 34.8437C88.5674 35.1981 88.8135 35.4965 89.1565 35.5945L102.924 39.5273C103.001 39.5488 103.081 39.56 103.16 39.56C103.239 39.56 103.319 39.5488 103.396 39.5273L117.176 35.5945C117.518 35.4965 117.765 35.1981 117.797 34.8437L120.823 0.93654C120.844 0.6966 120.763 0.45752 120.601 0.2795ZM91.9855 23.2234L98.0055 24.8935V7.74003H101.445V30.1L91.9855 27.4761V23.2234ZM114.392 17.2L113.485 27.735L104.885 30.1V26.1431L110.69 24.5478L110.905 21.3228L104.885 22.36V7.74003H115.205L114.908 11.18H108.325V18.06L114.392 17.2Z" fill="currentColor" />
<path d="M164.913 6.77905L172.913 32.7401L178.003 16.7401L182.913 32.7401L190.28 9.77515H196.538L190.913 18.2284V19.7596H192.222C197.37 19.7596 197.913 22.9002 197.913 24.451C197.913 28.994 194.893 29.744 193.975 29.744C193.104 29.744 192.347 29.2713 191.706 28.7088C191.061 28.1463 190.542 27.3768 190.147 26.4002L187.464 27.4823C188.011 29.0955 188.85 30.3768 189.987 31.3221C191.12 32.2674 192.448 32.7401 193.975 32.7401C196.007 32.7401 197.659 31.9432 198.936 30.3534C200.214 28.7596 200.851 26.7948 200.851 24.4549C200.851 22.1307 199.788 17.8885 194.913 17.0213L200.913 8.49005V6.77905H187.659L182.913 22.6346L178.167 6.77905H174.733L176.304 12.0565L173.093 22.6346L168.351 6.77905H164.913ZM213.913 6.77905L212.225 10.1737C212.225 10.1737 211.393 8.67365 210.569 7.99005C209.788 7.33765 208.772 6.73615 207.487 6.86505C206.245 6.99005 204.847 8.05255 203.901 9.82595C202.835 11.8416 202.468 13.8846 202.46 16.1385C202.452 19.2948 203.647 21.451 203.647 21.451C203.647 21.451 203.374 20.4471 203.417 18.7518C203.448 17.6932 203.456 16.5448 204.272 14.1658C204.96 12.1776 206.53 10.5643 207.917 10.2869C208.995 10.0682 209.683 10.2284 210.741 10.951C211.999 11.8143 212.913 13.3729 212.913 13.3729L214.913 9.70095L213.913 6.77905ZM201.245 25.1073C201.245 25.1073 201.733 26.6385 202.038 27.2908C202.21 27.6658 202.749 28.8104 203.511 29.8065C204.222 30.7362 205.601 32.3377 207.698 32.6971C209.8 33.0604 211.241 32.1424 211.601 31.9198C211.956 31.6971 212.71 31.0838 213.183 30.5877C213.683 30.0682 214.151 29.408 214.413 29.0135C214.601 28.7244 214.913 28.1385 214.913 28.1385L214.413 25.5916C214.413 25.5916 213.542 27.1073 212.999 27.6932C212.456 28.2791 211.483 29.3065 210.288 29.8221C209.089 30.3338 208.456 30.4315 207.272 30.3221C206.089 30.2088 204.987 29.5409 204.601 29.2635C204.218 28.9862 203.233 28.1658 202.675 27.4002C202.116 26.6346 201.245 25.1073 201.245 25.1073Z" fill="currentColor" />
<path d="M283 6.78003C269.543 6.78003 259 12.4909 259 19.78C259 27.0691 269.543 32.78 283 32.78C296.457 32.78 307 27.0691 307 19.78C307 12.4909 296.457 6.78003 283 6.78003ZM280.508 10.78H283.129L282.297 14.78H284.637C286.121 14.78 287.117 14.987 287.684 15.5066C288.238 16.0183 288.406 16.8581 288.184 18.0027L287.145 22.78H284.48L285.438 18.362C285.555 17.7566 285.508 17.3347 285.305 17.112C285.102 16.8894 284.656 16.78 283.988 16.78H281.891L280.625 22.78H278L280.508 10.78ZM269 14.78H274.332C276.875 14.78 278.414 16.4831 277.812 19.0261C277.113 21.9792 275.238 22.78 271.793 22.78H270.145L269.621 25.78H266.973L269 14.78ZM290 14.78H295.332C297.875 14.78 299.414 16.4831 298.812 19.0261C298.113 21.9792 296.238 22.78 292.793 22.78H291.145L290.621 25.78H287.973L290 14.78ZM271.27 16.78L270.516 20.78H272.227C273.707 20.78 275.082 20.612 275.312 18.405C275.398 17.5495 275.043 16.78 273.332 16.78H271.27ZM292.27 16.78L291.516 20.78H293.227C294.707 20.78 296.082 20.612 296.312 18.405C296.398 17.5495 296.043 16.78 294.332 16.78H292.27Z" fill="currentColor" />
</svg>
